<?xml version="1.0" encoding="UTF-8" standalone="no"?><!-- Generator: Gravit.io --><svg xmlns="http://www.w3.org/2000/svg" xmlns:xlink="http://www.w3.org/1999/xlink" style="isolation:isolate" viewBox="0 0 2493.333 1496" width="2493.333pt" height="1496pt"><g><path d=" M 1869.053 983.809 C 1793.227 983.809 1731.547 1045.491 1731.547 1121.307 C 1731.547 1197.124 1793.227 1258.807 1869.053 1258.807 C 1944.867 1258.807 2006.547 1197.124 2006.547 1121.307 C 2006.547 1045.491 1944.867 983.809 1869.053 983.809 Z  M 1869.053 1292.339 C 1774.747 1292.339 1698.013 1215.615 1698.013 1121.307 C 1698.013 1027.001 1774.747 950.277 1869.053 950.277 C 1963.36 950.277 2040.08 1027.001 2040.08 1121.307 C 2040.08 1215.615 1963.36 1292.339 1869.053 1292.339" fill="rgb(218,170,73)"/><g><path d=" M 2110.663 388.729 C 2054.165 388.729 2008.212 434.694 2008.212 491.191 C 2008.212 547.688 2054.165 593.653 2110.663 593.653 C 2167.174 593.653 2213.127 547.688 2213.127 491.191 C 2213.127 434.694 2167.174 388.729 2110.663 388.729 Z  M 2110.663 627.184 C 2035.682 627.184 1974.678 566.178 1974.678 491.191 C 1974.678 416.203 2035.682 355.198 2110.663 355.198 C 2185.657 355.198 2246.662 416.203 2246.662 491.191 C 2246.662 566.178 2185.657 627.184 2110.663 627.184" fill="rgb(137,187,225)"/></g><path d=" M 403.905 443.441 C 335.695 443.441 280.197 498.937 280.197 567.148 C 280.197 635.36 335.695 690.855 403.905 690.855 C 472.117 690.855 527.611 635.36 527.611 567.148 C 527.611 498.937 472.117 443.441 403.905 443.441 Z  M 403.905 724.387 C 317.203 724.387 246.667 653.851 246.667 567.148 C 246.667 480.447 317.203 409.909 403.905 409.909 C 490.605 409.909 561.141 480.447 561.141 567.148 C 561.141 653.851 490.605 724.387 403.905 724.387" fill="rgb(139,195,182)"/><path d=" M 621.112 1135.664 C 575.704 1135.664 538.763 1172.605 538.763 1218.013 C 538.763 1263.421 575.704 1300.363 621.112 1300.363 C 666.521 1300.363 703.463 1263.421 703.463 1218.013 C 703.463 1172.605 666.521 1135.664 621.112 1135.664 Z  M 621.112 1333.893 C 557.215 1333.893 505.231 1281.911 505.231 1218.013 C 505.231 1154.116 557.215 1102.132 621.112 1102.132 C 685.009 1102.132 736.993 1154.116 736.993 1218.013 C 736.993 1281.911 685.009 1333.893 621.112 1333.893" fill="rgb(209,110,82)"/><path d=" M 758.495 926.251 C 745.545 926.251 735.012 936.784 735.012 949.733 C 735.012 962.683 745.545 973.216 758.495 973.216 C 771.443 973.216 781.977 962.683 781.977 949.733 C 781.977 936.784 771.443 926.251 758.495 926.251 Z  M 758.495 1006.748 C 727.056 1006.748 701.479 981.171 701.479 949.733 C 701.479 918.295 727.056 892.719 758.495 892.719 C 789.932 892.719 815.509 918.295 815.509 949.733 C 815.509 981.171 789.932 1006.748 758.495 1006.748 Z " fill="rgb(63,111,164)"/><path d=" M 343.308 831.976 C 343.308 849.576 329.04 863.844 311.44 863.844 C 293.84 863.844 279.572 849.576 279.572 831.976 C 279.572 814.376 293.84 800.108 311.44 800.108 C 329.04 800.108 343.308 814.376 343.308 831.976" fill="rgb(137,187,225)"/><path d=" M 1225.277 1218.015 C 1225.277 1235.615 1211.009 1249.883 1193.409 1249.883 C 1175.808 1249.883 1161.54 1235.615 1161.54 1218.015 C 1161.54 1200.415 1175.808 1186.145 1193.409 1186.145 C 1211.009 1186.145 1225.277 1200.415 1225.277 1218.015 Z " fill="rgb(209,110,82)"/><path d=" M 2038.533 805.781 C 2038.533 823.383 2024.267 837.649 2006.667 837.649 C 1989.067 837.649 1974.8 823.383 1974.8 805.781 C 1974.8 788.181 1989.067 773.913 2006.667 773.913 C 2024.267 773.913 2038.533 788.181 2038.533 805.781 Z " fill="rgb(209,110,82)"/><path d=" M 1778.747 193.972 C 1778.747 211.573 1764.48 225.841 1746.88 225.841 C 1729.28 225.841 1715.013 211.573 1715.013 193.972 C 1715.013 176.373 1729.28 162.107 1746.88 162.107 C 1764.48 162.107 1778.747 176.373 1778.747 193.972 Z " fill="rgb(139,195,182)"/><path d=" M 711.068 193.972 C 711.068 211.573 696.8 225.841 679.199 225.841 C 661.599 225.841 647.331 211.573 647.331 193.972 C 647.331 176.373 661.599 162.107 679.199 162.107 C 696.8 162.107 711.068 176.373 711.068 193.972 Z " fill="rgb(209,110,82)"/><path d=" M 1266.573 339.871 C 1266.573 357.471 1252.305 371.739 1234.705 371.739 C 1217.105 371.739 1202.837 357.471 1202.837 339.871 C 1202.837 322.271 1217.105 308.003 1234.705 308.003 C 1252.305 308.003 1266.573 322.271 1266.573 339.871 Z " fill="rgb(218,170,73)"/><path d=" M 669.931 1011.029 C 669.931 1028.629 655.663 1042.897 638.063 1042.897 C 620.463 1042.897 606.195 1028.629 606.195 1011.029 C 606.195 993.429 620.463 979.161 638.063 979.161 C 655.663 979.161 669.931 993.429 669.931 1011.029" fill="rgb(139,195,182)"/><path d=" M 1437.053 1221.249 C 1424.093 1221.249 1413.56 1231.783 1413.56 1244.732 C 1413.56 1257.681 1424.093 1268.215 1437.053 1268.215 C 1450 1268.215 1460.533 1257.681 1460.533 1244.732 C 1460.533 1231.783 1450 1221.249 1437.053 1221.249 Z  M 1437.053 1301.747 C 1405.613 1301.747 1380.04 1276.169 1380.04 1244.732 C 1380.04 1213.295 1405.613 1187.717 1437.053 1187.717 C 1468.48 1187.717 1494.067 1213.295 1494.067 1244.732 C 1494.067 1276.169 1468.48 1301.747 1437.053 1301.747 Z " fill="rgb(139,195,182)"/><path d=" M 1729.947 1053.712 L 1533.413 938.679 L 1550.347 909.74 L 1746.88 1024.772 L 1729.947 1053.712 Z " fill="rgb(218,170,73)"/><path d=" M 1543.093 706.9 L 1532.573 675.063 L 1986.187 525.151 L 1996.707 556.988 L 1543.093 706.9 Z " fill="rgb(137,187,225)"/><path d=" M 896.441 725.575 L 535.397 617.247 L 545.032 585.129 L 906.079 693.457 L 896.441 725.575 Z " fill="rgb(139,195,182)"/><path d=" M 796.593 945.491 L 789.515 912.716 L 897.72 889.345 L 904.799 922.12 L 796.593 945.491 Z " fill="rgb(63,111,164)"/><path d=" M 715.743 1184.343 L 699.549 1154.977 L 960.595 1011.029 L 976.788 1040.393 L 715.743 1184.343 Z " fill="rgb(209,110,82)"/><path d=" M 1406.827 1211.512 L 1362.187 1114.805 L 1392.627 1100.749 L 1437.28 1197.456 L 1406.827 1211.512 Z " fill="rgb(139,195,182)"/><path d=" M 1005.161 389.083 C 1018.073 388.109 1027.785 376.813 1026.812 363.901 C 1025.839 350.989 1014.541 341.277 1001.631 342.251 C 988.717 343.224 979.005 354.52 979.979 367.432 C 980.953 380.345 992.249 390.056 1005.161 389.083 Z  M 999.108 308.813 C 1030.459 306.449 1057.885 330.031 1060.249 361.38 C 1062.612 392.729 1039.031 420.156 1007.683 422.52 C 976.333 424.884 948.907 401.303 946.543 369.953 C 944.179 338.605 967.759 311.177 999.108 308.813" fill="rgb(137,187,225)"/><path d=" M 1036.024 396.523 L 1087.815 489.597 L 1058.513 505.904 L 1006.721 412.827 L 1036.024 396.523" fill="rgb(137,187,225)"/><path d=" M 1490.973 276.536 C 1498.2 287.283 1512.813 290.151 1523.56 282.928 C 1534.307 275.707 1537.187 261.088 1529.96 250.34 C 1522.733 239.592 1508.12 236.724 1497.373 243.947 C 1486.627 251.169 1483.76 265.788 1490.973 276.536 Z  M 1557.787 231.637 C 1575.32 257.731 1568.36 293.225 1542.267 310.76 C 1516.173 328.295 1480.68 321.332 1463.147 295.239 C 1445.613 269.144 1452.573 233.651 1478.667 216.115 C 1504.76 198.581 1540.253 205.544 1557.787 231.637 Z " fill="rgb(209,110,82)"/><path d=" M 1499.747 307.047 L 1385.147 503.844 L 1356.507 486.415 L 1471.107 289.616 L 1499.747 307.047" fill="rgb(209,110,82)"/><path d=" M 1539.227 748.619 L 1577.053 745.943 C 1561.093 651.843 1508.16 570.168 1433.787 516.417 L 1413.947 548.605 C 1478.347 595.983 1524.4 666.929 1539.227 748.619" fill="rgb(209,110,82)"/><path d=" M 1225.277 486.691 C 1295.812 486.691 1361.067 509.703 1413.947 548.605 L 1433.787 516.417 C 1375.107 474 1303.064 448.968 1225.277 448.968 C 1148.621 448.968 1077.536 473.271 1019.315 514.569 L 1043.621 543.601 C 1095.212 507.745 1157.827 486.691 1225.277 486.691 Z " fill="rgb(139,195,182)"/><path d=" M 1043.621 543.601 L 1019.315 514.569 C 981.317 541.523 948.828 575.735 923.817 615.14 L 956.5 634.047 C 979.313 598.475 1008.965 567.687 1043.621 543.601" fill="rgb(63,111,164)"/><path d=" M 1577.053 745.943 L 1539.227 748.619 C 1542.6 767.171 1544.373 786.273 1544.373 805.783 C 1544.373 981.729 1401.227 1124.872 1225.277 1124.872 C 1049.329 1124.872 906.187 981.729 906.187 805.783 C 906.187 742.592 924.681 683.659 956.5 634.047 L 923.817 615.14 C 888.792 670.327 868.464 735.719 868.464 805.783 C 868.464 1002.529 1028.528 1162.595 1225.277 1162.595 C 1422.027 1162.595 1582.093 1002.529 1582.093 805.783 C 1582.093 785.393 1580.347 765.405 1577.053 745.943" fill="rgb(137,187,225)"/><path d=" M 621.024 1243.728 C 621.017 1243.728 621.009 1243.728 621.001 1243.728 L 620.673 1243.713 C 607.595 1243.48 596.956 1232.633 596.956 1219.532 C 596.956 1206.433 607.589 1195.584 620.661 1195.349 C 620.807 1195.347 620.953 1195.341 621.089 1195.332 L 621.173 1195.325 C 634.465 1195.361 645.265 1206.205 645.265 1219.532 C 645.265 1232.873 634.443 1243.728 621.024 1243.728 L 621.024 1243.728 Z  M 679.195 1206.48 C 679.195 1204.816 678.061 1203.401 676.444 1203.044 L 663.928 1200.241 L 670.805 1189.389 C 671.695 1187.985 671.495 1186.184 670.321 1185.013 L 654.047 1168.709 C 652.901 1167.564 651.004 1167.365 649.669 1168.225 L 638.848 1175.108 L 636.051 1162.572 C 635.691 1160.949 634.279 1159.816 632.616 1159.816 L 609.605 1159.816 C 607.941 1159.816 606.528 1160.949 606.171 1162.569 L 603.373 1175.109 L 592.56 1168.231 C 591.201 1167.356 589.316 1167.564 588.172 1168.709 L 571.9 1185.017 C 570.733 1186.191 570.533 1187.985 571.419 1189.391 L 578.296 1200.241 L 565.78 1203.044 C 564.157 1203.405 563.027 1204.819 563.027 1206.484 L 563.029 1229.541 C 563.029 1231.204 564.163 1232.619 565.781 1232.977 L 578.297 1235.78 L 571.42 1246.635 C 570.531 1248.035 570.729 1249.832 571.901 1251.008 L 588.173 1267.308 C 589.309 1268.457 591.196 1268.661 592.553 1267.797 L 603.376 1260.913 L 606.173 1273.451 C 606.529 1275.052 607.973 1276.212 609.608 1276.212 L 609.609 1276.212 L 632.62 1276.207 C 634.285 1276.207 635.699 1275.071 636.053 1273.452 L 638.851 1260.913 L 649.675 1267.799 C 651.037 1268.664 652.924 1268.449 654.052 1267.312 L 670.316 1251.011 C 671.473 1249.86 671.681 1248.017 670.805 1246.632 L 663.929 1235.78 L 676.443 1232.973 C 678.065 1232.613 679.199 1231.2 679.199 1229.537 L 679.195 1206.48" fill="rgb(63,111,164)"/><g><path d=" M 2140.361 501.388 C 2134.967 501.388 2130.582 496.999 2130.582 491.602 C 2130.582 486.206 2134.967 481.817 2140.361 481.817 C 2145.754 481.817 2150.14 486.206 2150.14 491.602 C 2150.14 496.999 2145.754 501.388 2140.361 501.388 Z  M 2110.889 501.388 C 2105.482 501.388 2101.097 496.999 2101.097 491.602 C 2101.097 486.206 2105.482 481.817 2110.889 481.817 C 2116.283 481.817 2120.668 486.206 2120.668 491.602 C 2120.668 496.999 2116.283 501.388 2110.889 501.388 Z  M 2079.992 501.388 C 2074.585 501.388 2070.2 496.999 2070.2 491.602 C 2070.2 486.206 2074.585 481.817 2079.992 481.817 C 2085.373 481.817 2089.758 486.206 2089.758 491.602 C 2089.758 496.999 2085.373 501.388 2079.992 501.388 Z  M 2110.661 420.574 C 2065.519 420.574 2028.811 449.42 2028.811 484.871 C 2028.811 520.323 2065.519 549.166 2110.661 549.166 C 2113.028 549.166 2115.463 549.077 2117.924 548.902 L 2124.354 564.448 C 2124.838 565.648 2125.901 566.49 2127.138 566.69 C 2127.353 566.732 2127.582 566.751 2127.797 566.751 C 2128.86 566.751 2129.869 566.299 2130.568 565.514 L 2154 539.435 C 2178.131 527.613 2192.524 507.236 2192.524 484.871 C 2192.524 449.42 2155.802 420.574 2110.661 420.574 Z " fill="rgb(63,111,164)"/></g><path d=" M 1245.783 992.857 L 1361.88 946.039 C 1365.707 944.5 1367.613 940.217 1366.227 936.343 L 1364.6 931.817 C 1364.347 931.109 1364.493 930.323 1364.947 929.724 C 1388.267 899.196 1372.333 858.544 1372.333 858.544 L 1348.947 798.767 C 1348.907 798.651 1348.893 798.597 1348.853 798.481 C 1348.413 796.429 1341.867 767.971 1320.644 767.971 C 1308.376 767.971 1301.607 773.321 1298.019 778.057 C 1296.831 779.627 1294.403 779.236 1293.947 777.321 C 1292.483 771.184 1287.64 763.429 1272.787 761.749 C 1256.297 759.881 1249.719 769.14 1247.135 775.847 C 1246.441 777.643 1243.891 777.785 1243.055 776.052 C 1237.725 764.997 1226.361 752.179 1212.008 756.963 C 1202.152 760.248 1197.631 766.585 1195.565 771.409 C 1194.756 773.299 1192.115 773.315 1191.368 771.4 L 1167.5 710.063 C 1167.5 710.063 1156.015 673.212 1132.084 682.305 C 1108.156 691.397 1121.079 722.984 1121.079 722.984 L 1176.189 868.567 C 1176.949 870.577 1174.743 872.416 1172.903 871.304 L 1146.612 855.408 C 1146.505 855.333 1146.447 855.291 1146.34 855.216 C 1144.435 853.555 1116.62 829.891 1099.064 848.371 C 1081.573 866.783 1100.827 886.967 1102.324 888.48 C 1102.417 888.559 1102.471 888.601 1102.563 888.68 L 1233.072 983.465 C 1233.316 983.761 1233.548 984.043 1233.793 984.337 L 1235.979 989.003 C 1237.705 992.687 1242.009 994.379 1245.783 992.857" fill="rgb(63,111,164)"/><path d=" M 1408.28 1016.196 L 1382.12 957.323 C 1380.24 953.089 1375.333 951.105 1371.04 952.836 L 1242.916 1004.427 C 1238.353 1006.263 1236.256 1011.543 1238.315 1016.009 L 1264.944 1073.78 C 1266.856 1077.927 1271.675 1079.859 1275.921 1078.179 L 1403.587 1027.692 C 1408.133 1025.892 1410.267 1020.667 1408.28 1016.196" fill="rgb(63,111,164)"/><path d=" M 1093.137 629.472 C 1095.477 635.559 1101.28 639.291 1107.431 639.291 C 1109.259 639.291 1111.121 638.953 1112.931 638.259 C 1120.823 635.223 1124.756 626.353 1121.717 618.465 L 1105.719 576.925 C 1102.683 569.029 1093.817 565.096 1085.924 568.139 C 1078.032 571.175 1074.099 580.044 1077.139 587.933 L 1093.137 629.472" fill="rgb(63,111,164)"/><path d=" M 1023.8 655.024 L 1064.485 673.089 C 1066.505 673.987 1068.615 674.413 1070.693 674.413 C 1076.559 674.413 1082.16 671.019 1084.697 665.305 C 1088.132 657.573 1084.645 648.525 1076.915 645.093 L 1036.228 627.027 C 1028.511 623.587 1019.456 627.072 1016.016 634.811 C 1012.584 642.543 1016.068 651.591 1023.8 655.024" fill="rgb(63,111,164)"/><path d=" M 1239.115 716.708 L 1198.424 698.641 C 1190.699 695.201 1181.643 698.687 1178.211 706.425 C 1174.779 714.157 1178.264 723.205 1185.996 726.639 L 1226.687 744.704 C 1228.705 745.601 1230.813 746.028 1232.893 746.028 C 1238.759 746.028 1244.363 742.633 1246.899 736.92 C 1250.331 729.188 1246.847 720.14 1239.115 716.708 Z " fill="rgb(63,111,164)"/><path d=" M 1083.859 704.392 C 1080.817 696.503 1071.953 692.561 1064.06 695.605 L 1022.513 711.6 C 1014.621 714.636 1010.688 723.497 1013.724 731.393 C 1016.068 737.473 1021.871 741.212 1028.021 741.212 C 1029.849 741.212 1031.711 740.876 1033.521 740.18 L 1075.068 724.185 C 1082.96 721.149 1086.893 712.288 1083.859 704.392" fill="rgb(63,111,164)"/><path d=" M 1179.052 667.339 C 1181.397 673.419 1187.199 677.157 1193.351 677.157 C 1195.179 677.157 1197.04 676.821 1198.851 676.125 L 1240.397 660.131 C 1248.289 657.095 1252.223 648.233 1249.187 640.337 C 1246.147 632.448 1237.289 628.523 1229.389 631.551 L 1187.843 647.545 C 1179.951 650.581 1176.017 659.443 1179.052 667.339" fill="rgb(63,111,164)"/><path d=" M 1100.615 793.519 L 1118.681 752.833 C 1122.113 745.101 1118.629 736.053 1110.897 732.62 C 1103.172 729.188 1094.121 732.665 1090.685 740.404 L 1072.619 781.091 C 1069.187 788.823 1072.671 797.871 1080.403 801.304 C 1082.421 802.2 1084.529 802.627 1086.609 802.627 C 1092.475 802.627 1098.077 799.232 1100.615 793.519" fill="rgb(63,111,164)"/><path d=" M 1152.017 639.111 C 1154.036 640.008 1156.148 640.435 1158.224 640.435 C 1164.093 640.435 1169.695 637.039 1172.229 631.327 L 1190.292 590.633 C 1193.724 582.9 1190.236 573.852 1182.508 570.42 C 1174.776 566.98 1165.724 570.472 1162.296 578.204 L 1144.233 618.899 C 1140.801 626.631 1144.289 635.679 1152.017 639.111 Z " fill="rgb(63,111,164)"/><path d=" M 1900.773 1181.865 L 1837.333 1181.865 C 1833.013 1181.865 1829.52 1178.371 1829.52 1174.059 L 1829.52 1051.733 C 1829.52 1047.423 1833.013 1043.928 1837.333 1043.928 L 1900.773 1043.928 C 1905.08 1043.928 1908.573 1047.423 1908.573 1051.733 L 1908.573 1174.059 C 1908.573 1178.371 1905.08 1181.865 1900.773 1181.865 L 1900.773 1181.865 Z  M 1879 1203.592 C 1879 1205.749 1877.267 1207.495 1875.107 1207.495 L 1863 1207.495 C 1860.84 1207.495 1859.093 1205.749 1859.093 1203.592 L 1859.093 1196.913 C 1859.093 1194.757 1860.84 1193.015 1863 1193.015 L 1875.107 1193.015 C 1877.267 1193.015 1879 1194.757 1879 1196.913 L 1879 1203.592 Z  M 1907.32 1025.617 L 1830.787 1025.617 C 1821.933 1025.617 1814.76 1032.944 1814.76 1041.977 L 1814.76 1200.635 C 1814.76 1209.669 1821.933 1216.999 1830.787 1216.999 L 1907.32 1216.999 C 1916.173 1216.999 1923.333 1209.669 1923.333 1200.635 L 1923.333 1041.977 C 1923.333 1032.944 1916.173 1025.617 1907.32 1025.617" fill="rgb(63,111,164)"/><path d=" M 459.992 545.188 C 458.269 545.188 456.527 545.299 454.788 545.521 C 454.969 543.857 455.059 542.287 455.059 540.768 C 455.059 514.353 433.569 492.861 407.152 492.861 C 386.336 492.861 367.829 506.492 361.547 526.227 C 360.088 526.1 358.719 526.035 357.392 526.035 C 329.373 526.035 306.58 548.829 306.58 576.848 C 306.58 604.865 329.373 627.663 357.392 627.663 L 459.992 627.663 C 482.732 627.663 501.231 609.163 501.231 586.424 C 501.231 563.687 482.732 545.188 459.992 545.188 Z " fill="rgb(63,111,164)"/></g></svg>